# xmcd
#
# Track frame offsets:
#	150
#	11638
#	24576
#	42429
#	55626
#	72488
#	87860
#	105070
#	118694
#	134108
#	149108
#	168834
#	185533
#	199784
#	211221
#	231639
#	246640
#
# Disc length: 3469 seconds
#
# Revision: 1
# Processed by: cddbd v1.5.1PL0 Copyright (c) Steve Scherf et al.
# Submitted via: audiograbber 1.83.01
#
DISCID=000d8b11
DTITLE=mixed - CKC030
DYEAR=1900
DGENRE=Karaoke
TTITLE0=Dolly Parton - 9 To 5
TTITLE1=Dolly Parton - I Will Always Love You
TTITLE2=Dolly Parton - Hard Candy Christmas
TTITLE3=Dolly Parton - Jolene
TTITLE4=Dolly Parton - Romeo
TTITLE5=Dolly Parton - Mule Skinner Blues
TTITLE6=Dolly Parton - Heartbreaker
TTITLE7=Dolly Parton - Here You Come Again
TTITLE8=Dolly Parton - Coat Of Many Colors
TTITLE9=Dolly Parton - Hello God
TTITLE10=Dolly with Kenny Rogers - Islands In The Stream
TTITLE11=Barbara Mandrell - I Was Counrty When Country Wasn't Cool
TTITLE12=Lynn Anderson - Rose Garden
TTITLE13=Crystal Gayle - Don't It Make My Brown Eyes Blue
TTITLE14=Crystal Gayle - Cry
TTITLE15=Loretta Lynn - Coal Miners Daughter
TTITLE16=Tammy Wynette - Stand By Your Man
EXTD=
EXTT0=
EXTT1=
EXTT2=
EXTT3=
EXTT4=
EXTT5=
EXTT6=
EXTT7=
EXTT8=
EXTT9=
EXTT10=
EXTT11=
EXTT12=
EXTT13=
EXTT14=
EXTT15=
EXTT16=
PLAYORDER=
